<mxfile
  host="Electron" 
  agent="Mozilla/5.0 (Macintosh; Intel Mac OS X 10_15_7) AppleWebKit/537.36 (KHTML, like Gecko) draw.io/25.0.2 Chrome/128.0.6613.186 Electron/32.2.5 Safari/537.36" 
  version="25.0.2"
  >
  <diagram
    name="-"
    >
    <mxGraphModel
      grid="1" 
      gridSize="10" 
      guides="1" 
      tooltips="1" 
      connect="1" 
      arrows="1" 
      fold="1" 
      page="1" 
      pageScale="1" 
      pageWidth="1" 
      pageHeight="1" 
      math="0" 
      shadow="0"
      >
      <root>
        <mxCell
          id="page"
          />
        <mxCell
          id="root" 
          parent="page"
          />
        <mxCell
          style="verticalAlign=top;aspect=fixed;align=center;spacingLeft=5;spacingRight=5;spacingBottom=5;strokeColor=none;" 
          id="shape_" 
          parent="root" 
          value=" " 
          vertex="1"
          >
          <mxGeometry
            as="geometry" 
            width="62" 
            height="76" 
            x="0" 
            y="0"
            />
          </mxCell>
        <mxCell
          style="rounded=0;whiteSpace=wrap;verticalAlign=middle;align=center;endArrow=blockThin;html=1;entryX=0;entryY=0.5;entryDx=0;entryDy=0;strokeColor=#470bed;strokeWidth=1.5;exitX=1.015;exitY=0.505;exitDx=0;exitDy=0;exitPerimeter=0;endFill=1;endSize=4;startSize=4;" 
          id="authorize3_" 
          parent="shape_" 
          value=" " 
          vertex="1"
          >
          <mxGeometry
            width="2" 
            height="16" 
            as="geometry" 
            x="30" 
            y="30"
            />
          </mxCell>
        </root>
      </mxGraphModel>
    </diagram>
  </mxfile>